Coordinates
version=1
nRows=11
nColumns=40
inDegrees=yes

Units are S.I. units (second, meters, Newtons, ...)
Angles are in degrees.

endheader
time	pelvis_tilt	pelvis_list	pelvis_rotation	pelvis_tx	pelvis_ty	pelvis_tz	hip_flexion_r	hip_adduction_r	hip_rotation_r	knee_angle_r	knee_angle_r_beta	ankle_angle_r	subtalar_angle_r	mtp_angle_r	hip_flexion_l	hip_adduction_l	hip_rotation_l	knee_angle_l	knee_angle_l_beta	ankle_angle_l	subtalar_angle_l	mtp_angle_l	lumbar_extension	lumbar_bending	lumbar_rotation	arm_flex_r	arm_add_r	arm_rot_r	elbow_flex_r	pro_sup_r	wrist_flex_r	wrist_dev_r	arm_flex_l	arm_add_l	arm_rot_l	elbow_flex_l	pro_sup_l	wrist_flex_l	wrist_dev_l
      2.60500000	    -11.13773088	     -3.59032799	      1.23169738	     -0.77168077	      0.95488514	      0.34601170	     40.13618983	      3.22048418	     -6.30877009	     24.89313947	     24.89313947	     -4.75399091	      0.00000000	      0.00000000	     -2.57454073	     -7.78636144	     -0.51713041	     99.19899939	     99.19899939	    -15.22467578	      0.00000000	      0.00000000	    -20.34841521	     10.97727046	     -5.89762026	    -38.65598550	    -21.89299961	    -30.87812414	     91.87719165	     82.50885817	      0.00000000	      0.00000000	     -9.53267751	    -24.47604715	     -1.50203336	    107.65160215	     85.05337664	      0.00000000	      0.00000000
      2.61000000	    -11.20543122	     -3.99974632	      0.87103793	     -0.74354421	      0.95308485	      0.34719021	     39.80758590	      3.89054093	     -6.55934908	     27.65754509	     27.65754509	     -1.46726972	      0.00000000	      0.00000000	     -0.26808994	     -8.55763205	     -0.29099394	    102.68826267	    102.68826267	    -14.69012182	      0.00000000	      0.00000000	    -20.40601243	     11.03826126	     -5.07829021	    -36.12909700	    -22.75330306	    -29.13970631	     91.55522110	     79.89435360	      0.00000000	      0.00000000	    -10.08871319	    -22.97073489	     -1.61069512	    103.68392969	     83.81568681	      0.00000000	      0.00000000
      2.61500000	    -11.19016966	     -4.35833763	      0.60499917	     -0.71551332	      0.95200645	      0.34824259	     39.25349675	      4.45806452	     -6.65551667	     30.27283588	     30.27283588	      1.74160196	      0.00000000	      0.00000000	      2.08150800	     -9.24341743	      0.15383899	    105.90690476	    105.90690476	    -14.29277424	      0.00000000	      0.00000000	    -20.56000974	     11.05267749	     -4.36289657	    -33.40259725	    -23.50384562	    -27.20153308	     91.27262349	     74.79080285	      0.00000000	      0.00000000	    -10.50008278	    -21.50842737	     -1.80150640	     99.67781795	     81.39423672	      0.00000000	      0.00000000
      2.62000000	    -11.10339211	     -4.64537989	      0.41576864	     -0.68750834	      0.95163381	      0.34917513	     38.44700423	      4.92951474	     -6.58550837	     32.62510479	     32.62510479	      4.73901607	      0.00000000	      0.00000000	      4.47236362	     -9.80683550	      0.76553587	    108.82516626	    108.82516626	    -14.00128998	      0.00000000	      0.00000000	    -20.77961394	     10.99592966	     -3.74893796	    -30.54440692	    -24.11797647	    -25.03530977	     91.20571923	     65.52051861	      0.00000000	      0.00000000	    -10.81671280	    -20.12369009	     -1.99335020	     95.75785273	     76.13332977	      0.00000000	      0.00000000
      2.62500000	    -10.96828633	     -4.84514515	      0.26983299	     -0.65946302	      0.95188181	      0.35002323	     37.39350415	      5.31690275	     -6.36250477	     34.64605707	     34.64605707	      7.44274691	      0.00000000	      0.00000000	      6.90368063	    -10.22581817	      1.47061829	    111.42548402	    111.42548402	    -13.77136279	      0.00000000	      0.00000000	    -21.02406146	     10.84603542	     -3.20248997	    -27.61153951	    -24.55539539	    -22.91698466	     91.37063021	     54.27241978	      0.00000000	      0.00000000	    -11.08888445	    -18.85637690	     -2.05560684	     92.19226785	     64.95302194	      0.00000000	      0.00000000
      2.63000000	    -10.80888188	     -4.95209796	      0.13058625	     -0.63132546	      0.95263386	      0.35083176	     36.11467024	      5.63315129	     -6.01100624	     36.30827749	     36.30827749	      9.81206799	      0.00000000	      0.00000000	      9.36911349	    -10.49910661	      2.19189292	    113.70093424	    113.70093424	    -13.55351176	      0.00000000	      0.00000000	    -21.27120919	     10.59339095	     -2.71840840	    -24.55154685	    -24.78640746	    -21.48299420	     90.89671731	     54.22059270	      0.00000000	      0.00000000	    -11.24564143	    -17.64459398	     -2.79924358	     88.04937160	     64.54438012	      0.00000000	      0.00000000
      2.63500000	    -10.64149868	     -4.97049353	     -0.03390353	     -0.60305498	      0.95378048	      0.35164659	     34.63345846	      5.89009088	     -5.55281420	     37.61278229	     37.61278229	     11.83160229	      0.00000000	      0.00000000	     11.85266952	    -10.64427582	      2.86064050	    115.65093711	    115.65093711	    -13.30215988	      0.00000000	      0.00000000	    -21.46285991	     10.23088943	     -2.24030479	    -21.70437333	    -24.87653252	    -19.72754976	     91.45524521	     42.17411262	      0.00000000	      0.00000000	    -11.51855859	    -16.62339050	     -2.97073973	     85.30999386	     44.77686972	      0.00000000	      0.00000000
      2.64000000	    -10.47178787	     -4.91121805	     -0.24265378	     -0.57462081	      0.95523936	      0.35250131	     32.96767577	      6.09462833	     -5.00632985	     38.57859872	     38.57859872	     13.49834643	      0.00000000	      0.00000000	     14.33112570	    -10.68964377	      3.42895171	    117.27941929	    117.27941929	    -12.98057664	      0.00000000	      0.00000000	    -21.61148506	      9.77118907	     -1.77475311	    -18.92673270	    -24.80506259	    -18.55753516	     91.49184378	     40.27305979	      0.00000000	      0.00000000	    -11.72247120	    -15.66370570	     -3.88494271	     81.59356848	     41.54622124	      0.00000000	      0.00000000
      2.64500000	    -10.29643951	     -4.78574448	     -0.50452108	     -0.54600206	      0.95696015	      0.35342415	     31.12966538	      6.24961119	     -4.38209645	     39.23217342	     39.23217342	     14.81128948	      0.00000000	      0.00000000	     16.77691927	    -10.66502511	      3.86747884	    118.59256843	    118.59256843	    -12.56506709	      0.00000000	      0.00000000	    -21.70426652	      9.22073508	     -1.28101460	    -16.37428253	    -24.61418224	    -17.63383458	     91.67004592	     39.90795069	      0.00000000	      0.00000000	    -11.96688633	    -14.82907473	     -4.92764614	     77.93837013	     39.92034477	      0.00000000	      0.00000000
      2.65000000	    -10.10796101	     -4.60434069	     -0.81796135	     -0.51718895	      0.95891550	      0.35443476	     29.13017461	      6.35416596	     -3.68769514	     39.60068760	     39.60068760	     15.76745984	      0.00000000	      0.00000000	     19.16485811	    -10.59666445	      4.16569677	    119.59940969	    119.59940969	    -12.04573448	      0.00000000	      0.00000000	    -21.74698391	      8.58699918	     -0.74168434	    -14.09244692	    -24.33393185	    -16.92311337	     92.09805841	     39.95867450	      0.00000000	      0.00000000	    -12.26834964	    -14.12542985	     -6.06288336	     74.41264771	     39.62372228	      0.00000000	      0.00000000
      2.65500000	     -9.90052758	     -4.37612040	     -1.17391437	     -0.48818332	      0.96108786	      0.35554599	     26.98394104	      6.40581494	     -2.93029860	     39.70930821	     39.70930821	     16.35937968	      0.00000000	      0.00000000	     21.47800664	    -10.50553440	      4.32875087	    120.31193075	    120.31193075	    -11.42723239	      0.00000000	      0.00000000	    -21.74614177	      7.87696945	     -0.14711724	    -12.09779619	    -23.98937888	    -16.40561544	     92.80369104	     40.04521632	      0.00000000	      0.00000000	    -12.64583622	    -13.56304091	     -7.23506825	     71.16371262	     39.34734378	      0.00000000	      0.00000000
